inDegrees=yes
name=ik_Shooting_orientations_side
DataType=double
version=3
OpenSimVersion=4.3-2021-08-27-4bc7ad9
endheader
time	pelvis_tilt	pelvis_list	pelvis_rotation	pelvis_tx	pelvis_ty	pelvis_tz	hip_flexion_r	hip_adduction_r	hip_rotation_r	knee_angle_r	knee_angle_r_beta	ankle_angle_r	subtalar_angle_r	mtp_angle_r	hip_flexion_l	hip_adduction_l	hip_rotation_l	knee_angle_l	knee_angle_l_beta	ankle_angle_l	subtalar_angle_l	mtp_angle_l	lumbar_extension	lumbar_bending	lumbar_rotation	arm_flex_r	arm_add_r	arm_rot_r	elbow_flex_r	pro_sup_r	wrist_flex_r	wrist_dev_r	arm_flex_l	arm_add_l	arm_rot_l	elbow_flex_l	pro_sup_l	wrist_flex_l	wrist_dev_l
7.5	-0.8015683371361656	-1.804168553944508	148.1074437440638	0	0.9399999999999999	0	43.44678721985535	-10.05478073009766	0	59.66238831044053	1.041305115620564	-5.007594157959466	0	0	43.44678721985535	-10.05478073009766	0	59.66238831044053	1.041305115620564	-5.007594157959466	0	0	2.178566113060579	-0.3476764544878082	-3.37344738014696	0	-11.66581624724186	0	75.99247328901561	45.03765003092635	0	0	-0.1030451663351868	18.1243241406343	-6.868662228778891	75.99247328901561	45.03765003092635	0	0
7.51	-0.8138910406629498	-1.817127287725733	148.0984856216132	0	0.9399999999999999	0	43.44718032517589	-10.05473235568483	0	59.66245542092789	1.041306286919531	-5.007585412248973	0	0	43.44718032517589	-10.05473235568483	0	59.66245542092789	1.041306286919531	-5.007585412248973	0	0	2.171473175608133	-0.3860780379243986	-3.36505134319664	0	-11.66624868953825	0	75.99222221094064	45.03762372665977	0	0	-0.4210366978914429	17.3267756751934	-6.964539593145528	75.99222221094064	45.03762372665977	0	0
7.52	-0.8133270408569666	-1.808505998660508	148.1004672915565	0	0.9399999999999999	0	43.44750376167905	-10.05469261375854	0	59.66251067885785	1.041307251352347	-5.007578230336466	0	0	43.44750376167905	-10.05469261375854	0	59.66251067885785	1.041307251352347	-5.007578230336466	0	0	2.164776380708002	-0.3532909068230336	-3.379547119454616	0	-11.6666047091264	0	75.99201563052701	45.03760210916461	0	0	-0.6711014432027057	16.68822497164871	-6.964192149243497	75.99201563052701	45.03760210916461	0	0
7.53	-0.8316282603966145	-1.811138706145877	148.1040107200747	0	0.9399999999999999	0	43.44784691732487	-10.05465048761397	0	59.66256932395383	1.041308274902362	-5.007570619964249	0	0	43.44784691732487	-10.05465048761397	0	59.66256932395383	1.041308274902362	-5.007570619964249	0	0	2.160742587717932	-0.372728236437808	-3.369882992682004	0	-11.66698254600156	0	75.99179645533607	45.0375791894705	0	0	-0.6769937846836809	16.01824475125753	-6.688082817988864	75.99179645533607	45.0375791894705	0	0
7.54	-0.8246403387518212	-1.801156923564128	148.1041874614826	0	0.9399999999999999	0	43.44809452568295	-10.05462018655163	0	59.6626117266582	1.041309014969165	-5.007565150042606	0	0	43.44809452568295	-10.05462018655163	0	59.6626117266582	1.041309014969165	-5.007565150042606	0	0	2.155323382126094	-0.3556580429768287	-3.37014095117786	0	-11.66725559664688	0	75.99163830646876	45.03756269301452	0	0	-0.7932437378456212	15.64214656112132	-6.428400277575323	75.99163830646876	45.03756269301452	0	0
7.55	-0.8281607104104921	-1.80412956955562	148.0992466622196	0	0.9399999999999999	0	43.44831910982085	-10.054592745595	0	59.66265022401396	1.041309686874776	-5.007560198332903	0	0	43.44831910982085	-10.054592745595	0	59.66265022401396	1.041309686874776	-5.007560198332903	0	0	2.161255918470912	-0.358066573290306	-3.35886334956186	0	-11.66750344228771	0	75.99149486321295	45.03754774892575	0	0	-0.8420392486887045	15.29964540090886	-6.232135840673116	75.99149486321295	45.03754774892575	0	0
7.56	-0.8081236487936687	-1.814048521590871	148.1069205141456	0	0.9399999999999999	0	43.44848984261584	-10.05457194974243	0	59.66267955252751	1.041310198753902	-5.007556448453481	0	0	43.44848984261584	-10.05457194974243	0	59.66267955252751	1.041310198753902	-5.007556448453481	0	0	2.178975814777707	-0.3516609934180988	-3.376907449152974	0	-11.6676921541498	0	75.99138581500151	45.03753641672003	0	0	-0.702294300514677	14.95195384161237	-5.86013368359077	75.99138581500151	45.03753641672003	0	0
7.57	-0.8457007052856641	-1.829074116314292	148.085838188442	0	0.9399999999999999	0	43.4487625395074	-10.05453861532908	0	59.6627262629933	1.041311014005325	-5.007550433509429	0	0	43.4487625395074	-10.05453861532908	0	59.6627262629933	1.041311014005325	-5.007550433509429	0	0	2.179563638553259	-0.4036031993098885	-3.332829291175273	0	-11.6679929644416	0	75.99121164187831	45.03751826342697	0	0	-0.7318909175139604	14.69140701795067	-5.633103320832427	75.99121164187831	45.03751826342697	0	0
7.58	-0.8306256663450068	-1.836909831382148	148.0925439535302	0	0.9399999999999999	0	43.44891848086444	-10.0545196781568	0	59.66275309988915	1.041311482397519	-5.007547021389925	0	0	43.44891848086444	-10.0545196781568	0	59.66275309988915	1.041311482397519	-5.007547021389925	0	0	2.191334722295433	-0.4042519943519228	-3.334672334930639	0	-11.66816557048251	0	75.99111204094271	45.03750793763262	0	0	-0.5933368365963273	14.55459078692616	-5.425071392880176	75.99111204094271	45.03750793763262	0	0
7.59	-0.8425373079359109	-1.838400571064574	148.0919762711	0	0.9399999999999999	0	43.44908058882088	-10.05449998095888	0	59.66278098317999	1.04131196905275	-5.007543472038949	0	0	43.44908058882088	-10.05449998095888	0	59.66278098317999	1.04131196905275	-5.007543472038949	0	0	2.179492876363496	-0.4149562907423167	-3.319764303097181	0	-11.6683449390394	0	75.99100850137771	45.0374971983635	0	0	-0.4583575056773811	14.43534878385084	-5.251042648903192	75.99100850137771	45.0374971983635	0	0
7.6	-0.8520025457479976	-1.838023473621875	148.0841697184327	0	0.9399999999999999	0	43.4492844051297	-10.05447519449616	0	59.66281600897526	1.041312580368201	-5.007539005181659	0	0	43.4492844051297	-10.05447519449616	0	59.66281600897526	1.041312580368201	-5.007539005181659	0	0	2.170899525348335	-0.4262826254405033	-3.290141797525715	0	-11.66857032091191	0	75.99087832242917	45.0374836859414	0	0	-0.4529326055046202	14.30288403774274	-5.11523778610944	75.99087832242917	45.0374836859414	0	0
7.61	-0.8621436437830696	-1.84271310999657	148.0724265136929	0	0.9399999999999999	0	43.4537912962475	-10.05397955511087	0	59.66359107845339	1.041326107882526	-5.007453409761078	0	0	43.4537912962475	-10.05397955511087	0	59.66359107845339	1.041326107882526	-5.007453409761078	0	0	2.168761537253628	-0.4403809541170424	-3.277940650658584	0	-11.67363578703775	0	75.98799965056939	45.03720531724662	0	0	-0.4470007043048395	14.2791238038044	-5.096451534582666	75.98799965056939	45.03720531724662	0	0
7.62	-0.864165068015477	-1.846417765874332	148.0703481034142	0	0.9399999999999999	0	43.4603134105558	-10.05324115350863	0	59.66471032019963	1.041345642336124	-5.007324239374245	0	0	43.4603134105558	-10.05324115350863	0	59.66471032019963	1.041345642336124	-5.007324239374245	0	0	2.157401209952889	-0.4440693930837009	-3.262238458597469	0	-11.68092698466957	0	75.98383383842705	45.03679419909352	0	0	-0.4801770335004381	14.21526650199439	-5.099076011271344	75.98383383842705	45.03679419909352	0	0
7.63	-0.8737277946805726	-1.856251087906427	148.0696472983934	0	0.9399999999999999	0	43.46783526521664	-10.05237587804074	0	59.66599916423876	1.041368136908151	-5.007171923782852	0	0	43.46783526521664	-10.05237587804074	0	59.66599916423876	1.041368136908151	-5.007171923782852	0	0	2.148506414748132	-0.4532444927359625	-3.249031176909869	0	-11.6893079041154	0	75.97902949641481	45.03631459807554	0	0	-0.5040144795498295	14.1387016980291	-5.096987714333002	75.97902949641481	45.03631459807554	0	0
7.64	-0.8738387414009455	-1.855526685599746	148.0717402402276	0	0.9399999999999999	0	43.47728857064998	-10.05130577336226	0	59.66762185166475	1.041396458146465	-5.0069848047016	0	0	43.47728857064998	-10.05130577336226	0	59.66762185166475	1.041396458146465	-5.0069848047016	0	0	2.143990628885087	-0.4665089085745276	-3.239391788730238	0	-11.69987576773998	0	75.97299147448477	45.03571871021617	0	0	-0.4630640184892337	14.03706458106695	-5.030881950063734	75.97299147448477	45.03571871021617	0	0
7.65	-0.8790461515956249	-1.854640935438844	148.072584666142	0	0.9399999999999999	0	43.48178788371828	-10.05082558443697	0	59.66839773646418	1.041409999890832	-5.006902825596899	0	0	43.48178788371828	-10.05082558443697	0	59.66839773646418	1.041409999890832	-5.006902825596899	0	0	2.132888939824031	-0.474328773349888	-3.226875902261035	0	-11.704965254494	0	75.97011761839458	45.03544676790771	0	0	-0.4842904659455733	14.00477345696189	-5.033170793973412	75.97011761839458	45.03544676790771	0	0
7.66	-0.8876010635125398	-1.862861822197723	148.0709628618028	0	0.9399999999999999	0	43.4819292538637	-10.05080918719323	0	59.66842212291454	1.041410425514683	-5.006899925309542	0	0	43.4819292538637	-10.05080918719323	0	59.66842212291454	1.041410425514683	-5.006899925309542	0	0	2.122737225031366	-0.4842591634261407	-3.205323477225817	0	-11.70512310700544	0	75.97002732292607	45.03543770879926	0	0	-0.5414861653800681	14.04328293733396	-5.113552613364334	75.97002732292607	45.03543770879926	0	0
7.67	-0.8953260551902327	-1.874034362194629	148.0655040240437	0	0.9399999999999999	0	43.48209392313288	-10.05079009590178	0	59.66845052895594	1.041410921293633	-5.006896549148464	0	0	43.48209392313288	-10.05079009590178	0	59.66845052895594	1.041410921293633	-5.006896549148464	0	0	2.130803129338775	-0.5037445984221123	-3.190489154841878	0	-11.70530698501854	0	75.96992214590888	45.03542715989791	0	0	-0.5241234130929044	14.15949483659823	-5.23069973603141	75.96992214590888	45.03542715989791	0	0
7.68	-0.8981689511618973	-1.879391569070458	148.0626154543097	0	0.9399999999999999	0	43.48233011527206	-10.05076262463439	0	59.66849116836882	1.041411630585194	-5.00689168808057	0	0	43.48233011527206	-10.05076262463439	0	59.66849116836882	1.041411630585194	-5.00689168808057	0	0	2.130127814439438	-0.5132710374964559	-3.176917078246153	0	-11.70557025407611	0	75.96977128623074	45.03541198920958	0	0	-0.4131159381891673	14.40317095465707	-5.42264625469714	75.96977128623074	45.03541198920958	0	0
7.69	-0.9024808024473733	-1.89199558833632	148.0554881208889	0	0.9399999999999999	0	43.48254012076048	-10.05073824519371	0	59.66852734461555	1.041412261979811	-5.006887376150512	0	0	43.48254012076048	-10.05073824519371	0	59.66852734461555	1.041412261979811	-5.006887376150512	0	0	2.140650483015518	-0.5338114739141818	-3.166097950727547	0	-11.70580454352367	0	75.96963715228844	45.03539852071968	0	0	-0.2448998218221976	14.78761517715918	-5.612535152804404	75.96963715228844	45.03539852071968	0	0
